HIERARCHY
ROOT Hips
{
  OFFSET 5.70366 102.999 -1.77653
  CHANNELS 6 Xposition Yposition Zposition Zrotation Xrotation Yrotation
  JOINT RightUpLeg
  {
    OFFSET -8.9458 -8.66707 0.101652
    CHANNELS 3 Zrotation Xrotation Yrotation
    JOINT RightLeg
    {
      OFFSET 0 -44.4227 1.3727
      CHANNELS 3 Zrotation Xrotation Yrotation
      JOINT RightFoot
      {
        OFFSET 0.253549 -42.0924 -1.46059
        CHANNELS 3 Zrotation Xrotation Yrotation
        JOINT RightToes
        {
          OFFSET 0.04 -4.41509 8.4991
          CHANNELS 3 Zrotation Xrotation Yrotation
          End Site
          {
            OFFSET -0.08 -0.137448 9.77979
          }
        }
      }
    }
  }
  JOINT Spine
  {
    OFFSET 0 11.8905 0
    CHANNELS 3 Zrotation Xrotation Yrotation
    JOINT Spine1
    {
      OFFSET 0 25.6574 0.127663
      CHANNELS 3 Zrotation Xrotation Yrotation
      JOINT HEad
      {
        OFFSET 0 8.73416 0.011341
        CHANNELS 3 Zrotation Xrotation Yrotation
        End Site
        {
          OFFSET -0.29 12.7742 2.51395
        }
      }
      JOINT LeftShoulder1
      {
        OFFSET 8.99 -0.362252 -0.22
        CHANNELS 3 Zrotation Xrotation Yrotation
        JOINT LeftArm
        {
          OFFSET 10.2827 -0.00337999 0.322123
          CHANNELS 3 Zrotation Xrotation Yrotation
          JOINT LeftForeArm
          {
            OFFSET 26.2597 0.099144 -1.42434
            CHANNELS 3 Zrotation Xrotation Yrotation
            JOINT LeftHand
            {
              OFFSET 22.0902 0.085362 1.02216
              CHANNELS 3 Zrotation Xrotation Yrotation
              End Site
              {
                OFFSET 13.419 -0.6 1.50291
              }
            }
          }
        }
      }
      JOINT RightShoulder
      {
        OFFSET -8.99 -0.362252 -0.22
        CHANNELS 3 Zrotation Xrotation Yrotation
        JOINT RightArm
        {
          OFFSET -10.2827 -0.00338 0.322123
          CHANNELS 3 Zrotation Xrotation Yrotation
          JOINT RightForeArm
          {
            OFFSET -26.364 0.099144 -1.42434
            CHANNELS 3 Zrotation Xrotation Yrotation
            JOINT RightHand
            {
              OFFSET -22.0324 0.085362 1.02216
              CHANNELS 3 Zrotation Xrotation Yrotation
              End Site
              {
                OFFSET -13.3284 -0.6 1.50291
              }
            }
          }
        }
      }
    }
  }
  JOINT LeftUpLeg
  {
    OFFSET 8.9458 -8.66707 0.101652
    CHANNELS 3 Zrotation Xrotation Yrotation
    JOINT LeftLeg
    {
      OFFSET 0 -44.4227 1.3727
      CHANNELS 3 Zrotation Xrotation Yrotation
      JOINT LeftFoot
      {
        OFFSET -0.253549 -42.0924 -1.46059
        CHANNELS 3 Zrotation Xrotation Yrotation
        JOINT LeftToes
        {
          OFFSET -0.04 -4.41509 8.4991
          CHANNELS 3 Zrotation Xrotation Yrotation
          End Site
          {
            OFFSET 0.08 -0.047448 9.77979
          }
        }
      }
    }
  }
}
MOTION
Frames: 17
Frame Time: 0.041667
216.701996 101.620003 5.277670 2.893680 -0.641823 -100.973999 0.494333 -14.162100 12.710200 -0.359955 25.084400 -0.303527 -0.661172 -10.732400 -0.209768 0.046205 0.000531 0.662642 -1.613430 6.155650 -1.443080 0.324838 1.003330 -1.642790 3.814890 19.450399 5.158190 -28.809500 -2.744460 11.522200 -47.523602 -20.513599 -10.245200 -8.152630 58.685902 -6.627050 1.894800 9.802480 -4.635350 38.022999 0.468998 -3.123730 36.283001 -12.356000 -2.568060 -3.567520 30.211800 30.560900 0.499661 10.009400 4.262290 -2.390880 -11.223400 -0.485166 2.295880 17.687799 8.790970 2.760730 -7.107290 0.014113 -0.000000 0.000009 -0.000000
216.703995 101.598999 5.050210 2.724630 -0.849703 -99.015099 0.571528 -12.021100 10.790600 -0.578863 23.529600 -0.315998 -1.552740 -10.648100 -0.232490 0.046205 0.000531 0.662642 -1.725380 5.801130 -1.413210 -0.066958 1.104660 -1.535670 4.458910 19.168501 3.480000 -28.988300 -2.737240 11.463400 -47.950802 -19.967699 -11.003700 -8.075320 58.349998 -6.845740 1.751310 9.813930 -4.778290 37.960201 0.474516 -3.110350 36.663799 -13.194000 -3.432250 -3.525370 30.280800 30.066799 0.536072 10.010500 4.115370 -2.640980 -11.083300 -0.791817 2.251970 17.487600 7.085840 3.152720 -6.987840 0.008088 -0.000000 0.000009 -0.000000
216.671005 101.658997 4.788840 2.856480 -1.088610 -97.943703 0.711737 -10.270500 7.345600 -1.584530 20.837099 -0.115570 -3.436520 -10.980000 -0.295183 0.046205 0.000531 0.662642 -1.277410 5.453540 -0.956038 -0.606671 0.844990 -0.919020 4.690520 18.690701 2.475530 -29.201300 -2.775210 11.524400 -48.029099 -16.974701 -11.284200 -6.821920 54.131599 -9.117120 1.531600 9.832150 -4.999640 38.107201 0.501105 -3.052910 36.697800 -12.985000 -4.140950 -3.406530 30.504400 28.601200 0.482174 10.001600 3.768540 -2.722940 -10.924900 -1.075350 2.090170 16.766600 6.340040 3.206500 -6.781840 0.000754 -0.000000 0.000009 -0.000000
216.682999 101.724998 4.484790 3.185510 -1.054210 -97.467102 0.917190 -9.719240 4.934450 -2.261660 19.238501 0.271910 -4.138900 -11.082100 -0.319869 0.046205 0.000531 0.662642 -0.149725 5.435270 -0.433749 -1.540680 0.372841 -0.171072 4.789890 18.200001 2.114360 -29.599199 -2.888370 11.753100 -47.342300 -11.265800 -11.214200 -5.303880 46.194698 -12.393600 1.505810 9.831850 -5.592250 38.320999 0.528170 -2.995900 37.009399 -11.949700 -4.084930 -3.453660 31.199900 26.574100 0.470946 9.990310 2.951680 -2.635690 -11.433800 -2.018760 2.182290 17.015100 6.783830 2.789730 -6.673860 0.000627 -0.000000 0.000009 -0.000000
216.636993 101.639000 4.130150 3.300770 -0.557334 -96.817101 1.244330 -9.499210 3.557630 -2.150110 18.834900 1.595220 -3.002360 -11.046800 -0.283690 0.046205 0.000531 0.662642 1.137260 5.770950 -0.120281 -2.049170 0.218900 0.257195 4.496790 17.352501 1.905370 -30.009300 -2.972620 11.894900 -46.935600 -5.011150 -11.020100 -4.279300 37.307899 -15.318000 1.639030 9.814100 -6.511670 37.995098 0.592204 -2.846090 37.661598 -11.153300 -3.840950 -3.681830 32.349998 25.116600 0.523624 9.982930 2.115770 -2.215360 -12.470900 -4.081510 2.144520 19.108801 8.016860 2.335500 -7.282510 0.020764 -0.000000 0.000009 -0.000000
216.520996 101.280998 3.730540 3.218240 0.360715 -95.564400 2.137640 -9.291510 2.315510 -1.864760 19.334299 1.839990 -2.807200 -11.908500 -0.305853 0.046205 0.000531 0.662642 2.298100 6.368500 -0.153874 -1.461570 0.168678 0.157154 3.575160 15.838500 2.003430 -30.018700 -2.958250 11.853400 -47.243500 -0.108465 -10.620300 -3.756100 30.342199 -17.503201 1.886120 9.780240 -7.614250 37.553398 0.697555 -2.597770 37.807598 -10.325100 -4.150470 -3.811650 32.824799 24.951799 0.507171 9.979450 1.793810 -1.139500 -14.020700 -6.715000 1.175230 22.709999 9.399930 1.986060 -8.808550 0.057677 -0.000000 0.000009 -0.000000
216.378006 100.737000 3.327410 3.144690 1.334920 -93.840401 3.380080 -9.617670 1.821660 -1.684590 20.974899 0.021574 -4.072880 -13.414200 -0.418828 0.046205 0.000531 0.662642 3.403750 7.223310 -0.501752 -0.711551 -0.255578 -0.258486 2.891470 14.373700 1.983340 -29.784599 -2.921110 11.802900 -47.608002 2.053450 -10.339000 -3.384610 27.768600 -18.618700 2.060180 9.753200 -8.429940 37.930599 0.748185 -2.494020 37.077099 -9.120340 -4.648270 -3.578950 32.074402 25.256100 0.430681 9.979710 1.953390 -0.103441 -16.814400 -7.152940 0.667410 28.148600 8.383980 1.160930 -9.552580 0.061192 -0.000000 0.000009 -0.000000
216.070999 100.277000 2.951490 3.070880 2.002600 -92.035698 4.392810 -9.971290 1.949270 -1.552730 22.662701 -1.981880 -5.060110 -14.635600 -0.532318 0.046205 0.000531 0.662642 4.148480 7.899140 -0.822903 -0.328832 -0.542907 -0.596529 3.118110 13.684000 1.234380 -29.642200 -2.878700 11.716900 -48.124100 0.374386 -10.242900 -3.092640 29.861000 -18.303400 2.241420 9.731280 -8.458930 38.649101 0.670641 -2.686130 36.395302 -9.032020 -4.411770 -3.253160 31.819901 24.791901 0.422134 9.980090 2.221350 0.257749 -20.674000 -6.802880 0.689706 35.048199 7.328300 0.266179 -8.169400 0.034874 -0.000000 0.000009 -0.000000
215.453003 100.045998 2.609650 3.075320 2.154120 -90.585701 4.901490 -9.844160 2.126550 -1.539860 23.434099 -3.644540 -5.482430 -15.616300 -0.613705 0.046205 0.000531 0.662642 4.088980 8.151530 -0.785185 0.122226 -0.466211 -0.629934 3.660280 13.441400 0.358857 -29.693100 -2.842180 11.605000 -48.725201 -3.887310 -9.716950 -3.101560 34.067001 -17.082800 2.547890 9.701420 -7.958670 38.780800 0.536205 -2.986180 36.493801 -10.370200 -3.478550 -3.123030 32.842899 23.687099 0.454228 9.978430 2.107180 -0.005062 -24.538000 -6.086070 0.772262 41.101200 7.818060 0.596828 -6.248610 0.014230 -0.000000 0.000009 -0.000000
214.514999 99.996201 2.340190 3.355880 1.864510 -89.768501 4.896940 -9.499040 2.180490 -1.678320 23.470100 -4.812900 -5.949090 -16.304899 -0.688663 0.046205 0.000531 0.662642 3.704820 8.262840 -0.436482 0.199758 -0.594153 -0.316036 3.978160 13.201100 -0.181098 -29.893999 -2.875990 11.654900 -48.291199 -8.022730 -8.407130 -3.287350 37.716301 -15.873000 2.472110 9.719040 -7.253710 38.640202 0.489972 -3.085900 36.950199 -11.629100 -2.534040 -2.986750 33.910900 22.771700 0.387743 9.970110 1.760900 -0.519762 -27.883400 -4.856920 0.873460 44.330299 9.215500 1.256910 -6.011720 0.003390 -0.000000 0.000009 -0.000000
213.253006 100.028000 2.182340 3.799530 1.417540 -89.522202 4.538390 -8.929960 1.948890 -1.822070 23.051701 -4.786690 -6.228060 -16.764700 -0.739340 0.046205 0.000531 0.662642 3.740750 8.257330 0.066289 -0.667956 -0.712735 0.312397 4.264260 12.716300 -1.094020 -30.064100 -2.939690 11.792600 -46.806099 -11.860200 -6.695040 -3.530720 41.033401 -14.711700 1.966280 9.782330 -6.279890 38.680401 0.576167 -2.895940 37.419800 -11.979400 -1.663810 -2.783290 34.223701 22.288900 0.166384 9.960750 2.194980 -0.899737 -30.542601 -3.443810 0.927846 44.418098 10.336600 0.624060 -7.022580 0.023019 -0.000000 0.000009 -0.000000
211.645996 100.033997 2.127330 4.128320 1.052490 -89.502197 4.103630 -7.827390 1.420170 -1.913550 22.231400 -4.159040 -5.856580 -17.384300 -0.746108 0.046205 0.000531 0.662642 4.045120 8.165060 0.648496 -1.749880 -0.440418 1.073230 4.387350 11.853300 -2.199000 -30.192499 -2.975270 11.861700 -44.969799 -15.847400 -4.763450 -3.783220 44.427799 -13.472500 1.816690 9.802880 -5.530740 38.508400 0.684675 -2.651500 38.031799 -11.027800 -0.592945 -2.735110 33.786598 22.511101 -0.025218 9.957640 3.301810 -0.990069 -32.292900 -2.010420 0.927340 42.233200 11.033800 -0.191942 -7.785580 0.031341 -0.000000 0.000009 -0.000000
209.751007 99.903801 2.166480 4.314170 0.848246 -89.323196 3.757050 -6.452160 0.791670 -1.921410 21.564699 -3.895160 -5.681460 -18.042000 -0.769557 0.046205 0.000531 0.662642 4.298810 8.456500 1.078690 -2.459350 -0.462466 1.632950 4.203640 10.950800 -2.749040 -30.359600 -3.016370 11.936700 -42.693600 -19.103201 -2.376190 -3.808890 46.967999 -12.636700 1.953700 9.790900 -5.418280 38.142200 0.743078 -2.511430 38.451199 -8.293980 0.580532 -2.862690 32.174000 23.800400 0.031772 9.966540 3.827300 -1.067850 -33.327000 -1.079610 0.921082 39.069500 11.891700 -0.189517 -8.303680 0.030406 -0.000000 0.000009 -0.000000
207.574005 99.593102 2.304320 4.333890 0.811411 -89.029198 3.514470 -4.988160 0.089517 -1.799090 21.481899 -3.704490 -6.127600 -18.943600 -0.868119 0.046205 0.000531 0.662642 4.673080 9.172030 1.258650 -3.105190 -0.972665 1.945750 4.065890 10.318700 -3.067320 -30.530500 -3.107280 12.144500 -39.988098 -21.929001 0.032272 -3.844040 49.070000 -11.840900 1.893960 9.795900 -5.493550 37.979900 0.822087 -2.329170 38.556301 -6.161660 1.750650 -3.025060 30.831100 25.607401 0.085067 9.970420 3.775580 -1.221460 -33.689999 -1.019180 0.920645 35.887100 12.784900 -0.462982 -9.254040 0.026816 -0.000000 0.000009 -0.000000
204.994003 99.128700 2.546340 4.161140 0.781514 -89.238403 3.198870 -3.149200 -0.489784 -1.697100 21.604401 -2.931960 -5.910050 -20.410500 -0.934812 0.046205 0.000531 0.662642 5.013740 9.587690 1.516680 -3.808080 -1.073920 2.375780 3.977940 10.029200 -3.438600 -30.776600 -3.273720 12.535400 -37.369701 -25.200899 1.706840 -4.335530 51.981499 -10.165300 1.792290 9.807340 -5.215460 37.709999 0.926300 -2.084210 38.956799 -5.850140 2.853240 -3.315810 30.713800 27.369101 -0.310470 9.940870 4.075550 -1.334070 -32.998501 -1.369640 0.910997 33.212601 13.239500 -0.978455 -9.639100 0.026052 -0.000000 0.000009 -0.000000
201.990997 98.539299 2.919340 4.107200 0.528489 -90.055298 2.733120 -1.325320 -0.062343 -1.960120 22.066401 -2.611430 -5.376200 -21.834499 -0.954301 0.046205 0.000531 0.662642 4.895480 9.443100 1.948450 -4.454390 -0.876922 2.967270 3.792580 10.290200 -3.557030 -30.983700 -3.417400 12.870100 -35.215099 -27.894699 3.055920 -4.746600 54.618698 -8.464030 1.623780 9.827970 -4.246430 37.170399 0.934507 -2.044320 39.566700 -5.950490 3.398150 -3.750030 30.762899 29.542101 -0.744781 9.906950 4.719610 -1.849330 -31.837000 -1.978650 0.916476 32.236000 13.601100 0.114062 -8.074140 0.033339 -0.000000 0.000009 -0.000000
198.750000 97.895401 3.405640 4.324840 0.017198 -90.712303 2.326330 -0.253106 2.945890 -2.069030 23.858101 -5.126090 -4.688300 -23.129000 -0.928731 0.046205 0.000531 0.662642 4.415720 9.366420 2.170240 -5.138210 -1.237780 3.304530 3.730860 10.596200 -3.507620 -31.043200 -3.435230 12.903100 -33.552399 -29.560600 4.460460 -4.577840 55.936901 -7.635590 1.455180 9.846460 -3.134630 36.994099 0.887601 -2.145080 39.800900 -6.427220 3.136690 -3.673670 30.118200 31.503599 -0.609428 9.921470 5.462400 -2.960020 -31.180599 -2.628120 0.959273 33.811001 14.212400 2.628470 -6.637890 0.003066 -0.000000 0.000009 -0.000000
